<svg version="1.1" id="Layer_1" xmlns="http://www.w3.org/2000/svg" xmlns:xlink="http://www.w3.org/1999/xlink" x="0px" y="0px"
	 width="100%" viewBox="0 0 512 512" enable-background="new 0 0 512 512" xml:space="preserve">
<path fill="#F14437" opacity="1.000000" stroke="none" 
	d="
M513.000000,76.000000 
	C513.000000,88.354225 513.000000,100.708458 512.649414,113.564201 
	C492.559662,128.368820 472.820526,142.671921 452.751038,157.073624 
	C388.777863,203.541031 325.113434,249.880325 261.552612,296.361298 
	C258.189941,298.820374 256.085754,299.003998 252.630356,296.476135 
	C190.287018,250.867035 127.835922,205.405228 65.400406,159.922165 
	C64.120300,158.989609 62.751350,158.179031 60.936592,156.993149 
	C60.936592,255.717102 60.936592,353.777344 60.476921,451.909485 
	C48.098026,451.987457 36.173584,451.778503 24.261204,452.067169 
	C14.617397,452.300903 8.348019,447.378662 3.355837,439.893585 
	C2.822706,439.094238 1.797135,438.623291 0.999999,438.000000 
	C1.000000,341.312439 1.000000,244.624878 1.398460,147.527039 
	C20.537203,150.138367 39.277485,153.159988 58.017765,156.181610 
	C57.827969,154.581543 57.367226,153.914429 56.748886,153.463348 
	C44.189869,144.302048 31.665169,135.092194 19.016129,126.056496 
	C13.138947,121.858200 7.013113,118.008003 1.000000,114.000000 
	C1.000000,101.645775 1.000000,89.291542 1.299302,76.751472 
	C6.290049,69.557976 11.354609,62.775139 20.626421,62.102810 
	C27.051456,61.636917 33.544407,62.107635 40.158104,62.452141 
	C110.819771,114.169304 181.359283,165.554688 251.766739,217.120377 
	C255.854355,220.114105 258.349335,220.027878 262.396637,217.062592 
	C320.973663,174.145584 379.708862,131.444565 438.369843,88.642029 
	C450.324005,79.919556 462.128815,70.992371 474.466064,62.088486 
	C480.056244,62.011768 485.186523,62.129448 490.308502,61.973438 
	C499.500031,61.693481 505.549500,66.555962 510.345337,73.726486 
	C510.969025,74.659012 512.102600,75.250534 513.000000,76.000000 
z"/>
<path fill="#000000" opacity="1.000000" stroke="none" 
	d="
M513.000000,75.531342 
	C512.102600,75.250534 510.969025,74.659012 510.345337,73.726486 
	C505.549500,66.555962 499.500031,61.693481 490.308502,61.973438 
	C485.186523,62.129448 480.056244,62.011768 473.999146,62.020367 
	C329.710358,62.015495 186.352142,62.007359 42.993919,62.006489 
	C41.998283,62.006481 41.002651,62.106533 40.007015,62.159863 
	C33.544407,62.107635 27.051456,61.636917 20.626421,62.102810 
	C11.354609,62.775139 6.290049,69.557976 1.299302,76.282814 
	C1.000000,51.016521 1.000000,26.033041 1.000003,1.052721 
	C171.666672,1.055879 342.333344,1.055879 513.000000,1.055879 
	C513.000000,25.762066 513.000000,50.412376 513.000000,75.531342 
z"/>
<path fill="#000000" opacity="1.000000" stroke="none" 
	d="
M0.999999,438.468658 
	C1.797135,438.623291 2.822706,439.094238 3.355837,439.893585 
	C8.348019,447.378662 14.617397,452.300903 24.261204,452.067169 
	C36.173584,451.778503 48.098026,451.987457 60.947388,451.984375 
	C190.951782,451.991608 320.026062,451.996429 449.100311,451.991516 
	C450.426178,451.991455 451.752075,451.862183 453.297455,451.848877 
	C453.516968,451.904510 453.959045,451.806091 454.424500,451.883728 
	C466.532654,451.974213 478.180298,451.782013 489.816437,452.064087 
	C499.328430,452.294678 505.545715,447.446533 510.509613,440.076477 
	C511.089386,439.215698 512.158020,438.684174 513.000000,438.000000 
	C513.000000,462.983459 513.000000,487.966919 513.000000,512.947327 
	C342.333313,512.944275 171.666656,512.944275 1.000000,512.944275 
	C1.000000,488.238129 1.000000,463.587738 0.999999,438.468658 
z"/>
<path fill="#D32E2A" opacity="1.000000" stroke="none" 
	d="
M513.000000,437.531311 
	C512.158020,438.684174 511.089386,439.215698 510.509613,440.076477 
	C505.545715,447.446533 499.328430,452.294678 489.816437,452.064087 
	C478.180298,451.782013 466.532654,451.974213 454.342621,451.723572 
	C453.660919,451.275757 453.475952,451.129852 453.180237,450.580078 
	C453.145996,355.727814 453.173126,261.343567 453.192810,166.959320 
	C453.193512,163.631226 453.120209,160.303116 453.081421,156.975021 
	C472.820526,142.671921 492.559662,128.368820 512.649414,114.032860 
	C513.000000,221.687561 513.000000,329.375122 513.000000,437.531311 
z"/>
<path fill="#D32E2A" opacity="1.000000" stroke="none" 
	d="
M1.000000,114.468658 
	C7.013113,118.008003 13.138947,121.858200 19.016129,126.056496 
	C31.665169,135.092194 44.189869,144.302048 56.748886,153.463348 
	C57.367226,153.914429 57.827969,154.581543 58.017765,156.181610 
	C39.277485,153.159988 20.537203,150.138367 1.398460,147.058380 
	C1.000000,136.312439 1.000000,125.624878 1.000000,114.468658 
z"/>
<path fill="#F2F2F2" opacity="1.000000" stroke="none" 
	d="
M452.751038,157.073624 
	C453.120209,160.303116 453.193512,163.631226 453.192810,166.959320 
	C453.173126,261.343567 453.145996,355.727814 453.097137,450.756836 
	C453.074188,451.401581 453.077942,451.793213 453.077942,451.793213 
	C451.752075,451.862183 450.426178,451.991455 449.100311,451.991516 
	C320.026062,451.996429 190.951782,451.991608 61.407059,451.912476 
	C60.936592,353.777344 60.936592,255.717102 60.936592,156.993149 
	C62.751350,158.179031 64.120300,158.989609 65.400406,159.922165 
	C127.835922,205.405228 190.287018,250.867035 252.630356,296.476135 
	C256.085754,299.003998 258.189941,298.820374 261.552612,296.361298 
	C325.113434,249.880325 388.777863,203.541031 452.751038,157.073624 
z"/>
<path fill="#F2F2F2" opacity="1.000000" stroke="none" 
	d="
M40.158104,62.452141 
	C41.002651,62.106533 41.998283,62.006481 42.993919,62.006489 
	C186.352142,62.007359 329.710358,62.015495 473.535522,62.091427 
	C462.128815,70.992371 450.324005,79.919556 438.369843,88.642029 
	C379.708862,131.444565 320.973663,174.145584 262.396637,217.062592 
	C258.349335,220.027878 255.854355,220.114105 251.766739,217.120377 
	C181.359283,165.554688 110.819771,114.169304 40.158104,62.452141 
z"/>
<path fill="#F14437" opacity="1.000000" stroke="none" 
	d="
M453.297455,451.848877 
	C453.077942,451.793213 453.074188,451.401581 453.157288,451.224854 
	C453.475952,451.129852 453.660919,451.275757 453.877136,451.645966 
	C453.959045,451.806091 453.516968,451.904510 453.297455,451.848877 
z"/>
</svg>